<svg width="59" height="90" viewBox="0 0 59 90" fill="none" xmlns="http://www.w3.org/2000/svg">
<rect width="59" height="90" fill="#E5E5E5"/>
<g id="Frame">
<rect id="Rectangle 8" x="-1093" y="-1567" width="1445" height="4759" fill="white"/>
<g id="Group 2">
<rect id="Rectangle 7" x="-1097" y="-1541" width="1445" height="4759" fill="white"/>
<g id="Group 7">
<g id="Group 2_2">
<g id="Frame_2" clip-path="url(#clip0_0_1)">
<g id="Group">
<path id="path0 fill 1" d="M0.0513201 115.661C8.08984 115.661 14.61 109.021 14.61 100.835V86.0098H0.0513201C-7.9872 86.0098 -14.5073 92.6495 -14.5073 100.835C-14.5073 109.021 -7.9872 115.661 0.0513201 115.661Z" fill="#0ACF83"/>
<path id="path1 fill 3" d="M-14.5073 71.1655C-14.5073 62.9796 -7.9872 56.3398 0.0513201 56.3398H14.61V86.0094H0.0513201C-7.9872 85.9912 -14.5073 79.3515 -14.5073 71.1655Z" fill="#A259FF"/>
<path id="path1 fill 2" d="M-14.5073 41.4956C-14.5073 33.3097 -7.9872 26.6699 0.0513201 26.6699H14.61V56.3395H0.0513201C-7.9872 56.3395 -14.5073 49.6816 -14.5073 41.4956Z" fill="#F24E1E"/>
<path id="path2 fill 1" d="M14.6279 26.6699H29.1866C37.2251 26.6699 43.7452 33.3097 43.7452 41.4956C43.7452 49.6816 37.2251 56.3213 29.1866 56.3213H14.6279V26.6699Z" fill="#FF7262"/>
<path id="path3 fill 1" d="M43.7452 71.1655C43.7452 79.3515 37.2251 85.9913 29.1866 85.9913C21.1481 85.9913 14.6279 79.3515 14.6279 71.1655C14.6279 62.9796 21.1481 56.3398 29.1866 56.3398C37.2251 56.3398 43.7452 62.9796 43.7452 71.1655Z" fill="#1ABCFE"/>
</g>
</g>
</g>
</g>
</g>
<g id="Group 3">
<rect id="Rectangle 7_2" x="-1097" y="-1541" width="1445" height="4759" fill="white"/>
<g id="Group 7_2">
<g id="Group 2_3">
<g id="Frame_3" clip-path="url(#clip1_0_1)">
<g id="Group_2">
<path id="path0 fill 1_2" d="M0.0513201 115.661C8.08984 115.661 14.61 109.021 14.61 100.835V86.0098H0.0513201C-7.9872 86.0098 -14.5073 92.6495 -14.5073 100.835C-14.5073 109.021 -7.9872 115.661 0.0513201 115.661Z" fill="#0ACF83"/>
<path id="path1 fill 3_2" d="M-14.5073 71.1655C-14.5073 62.9796 -7.9872 56.3398 0.0513201 56.3398H14.61V86.0094H0.0513201C-7.9872 85.9912 -14.5073 79.3515 -14.5073 71.1655Z" fill="#A259FF"/>
<path id="path1 fill 2_2" d="M-14.5073 41.4956C-14.5073 33.3097 -7.9872 26.6699 0.0513201 26.6699H14.61V56.3395H0.0513201C-7.9872 56.3395 -14.5073 49.6816 -14.5073 41.4956Z" fill="#F24E1E"/>
<path id="path2 fill 1_2" d="M14.6279 26.6699H29.1866C37.2251 26.6699 43.7452 33.3097 43.7452 41.4956C43.7452 49.6816 37.2251 56.3213 29.1866 56.3213H14.6279V26.6699Z" fill="#FF7262"/>
<path id="path3 fill 1_2" d="M43.7452 71.1655C43.7452 79.3515 37.2251 85.9913 29.1866 85.9913C21.1481 85.9913 14.6279 79.3515 14.6279 71.1655C14.6279 62.9796 21.1481 56.3398 29.1866 56.3398C37.2251 56.3398 43.7452 62.9796 43.7452 71.1655Z" fill="#1ABCFE"/>
</g>
</g>
</g>
</g>
</g>
<g id="Group 4">
<rect id="Rectangle 7_3" x="-1082" y="-1567" width="1445" height="4759" fill="white"/>
<g id="Group 7_3">
<g id="Group 2_4">
<g id="Frame_4" clip-path="url(#clip2_0_1)">
<g id="Group_3">
<path id="path0 fill 1_3" d="M15.0513 89.6612C23.0898 89.6612 29.61 83.0214 29.61 74.8355V60.0098H15.0513C7.0128 60.0098 0.492676 66.6495 0.492676 74.8355C0.492676 83.0214 7.0128 89.6612 15.0513 89.6612Z" fill="#0ACF83"/>
<path id="path1 fill 3_3" d="M0.492676 45.1655C0.492676 36.9796 7.0128 30.3398 15.0513 30.3398H29.61V60.0094H15.0513C7.0128 59.9912 0.492676 53.3515 0.492676 45.1655Z" fill="#A259FF"/>
<path id="path1 fill 2_3" d="M0.492676 15.4956C0.492676 7.30965 7.0128 0.669922 15.0513 0.669922H29.61V30.3395H15.0513C7.0128 30.3395 0.492676 23.6816 0.492676 15.4956Z" fill="#F24E1E"/>
<path id="path2 fill 1_3" d="M29.6279 0.669922H44.1866C52.2251 0.669922 58.7452 7.30965 58.7452 15.4956C58.7452 23.6816 52.2251 30.3213 44.1866 30.3213H29.6279V0.669922Z" fill="#FF7262"/>
<path id="path3 fill 1_3" d="M58.7452 45.1655C58.7452 53.3515 52.2251 59.9913 44.1866 59.9913C36.1481 59.9913 29.6279 53.3515 29.6279 45.1655C29.6279 36.9796 36.1481 30.3398 44.1866 30.3398C52.2251 30.3398 58.7452 36.9796 58.7452 45.1655Z" fill="#1ABCFE"/>
</g>
</g>
</g>
</g>
</g>
</g>
<defs>
<clipPath id="clip0_0_1">
<rect width="58.2524" height="88.9906" fill="white" transform="translate(-14.5073 26.6699)"/>
</clipPath>
<clipPath id="clip1_0_1">
<rect width="58.2524" height="88.9906" fill="white" transform="translate(-14.5073 26.6699)"/>
</clipPath>
<clipPath id="clip2_0_1">
<rect width="58.2524" height="88.9906" fill="white" transform="translate(0.492676 0.669922)"/>
</clipPath>
</defs>
</svg>
