<svg width="90" height="90" viewBox="0 0 90 90" fill="none" xmlns="http://www.w3.org/2000/svg">
<rect width="90" height="90" fill="#E5E5E5"/>
<rect x="-562" y="-1567" width="1445" height="4759" fill="white"/>
<rect x="-566" y="-1541" width="1445" height="4759" fill="white"/>
<path d="M-10.9966 30.4531H70.7639V111.458H-10.9966V30.4531Z" fill="url(#paint0_radial_0_1)"/>
<path d="M-10.9966 30.4537H70.7639V111.459H-10.9966V30.4537ZM-14.7122 115.242H74.4973V26.6699H-14.7122V115.242ZM43.7188 58.2496C43.7188 57.9404 43.826 57.7949 44.1654 57.7949H50.0067C50.3104 57.7949 50.4533 57.904 50.4533 58.2496V88.1194C50.4533 88.4286 50.3818 88.5742 50.0067 88.5742H44.2368C43.8617 88.5742 43.7545 88.3923 43.7545 88.083V58.2496H43.7188ZM43.3079 49.6453C43.3079 47.2258 44.9871 45.7888 47.095 45.7888C49.3636 45.7888 50.882 47.335 50.882 49.6453C50.882 52.1374 49.2922 53.5018 47.0235 53.5018C44.8799 53.52 43.3079 52.1556 43.3079 49.6453ZM26.5879 70.6923C25.5518 66.4902 23.0866 57.3401 22.1578 52.9015H22.0863C21.3003 57.3219 19.3353 64.8166 17.7812 70.6923H26.5879ZM16.2629 76.8227L13.3333 88.174C13.2618 88.4832 13.1546 88.556 12.7795 88.556H7.31333C6.9382 88.556 6.86674 88.4468 6.9382 87.9921L17.4954 50.3729C17.6741 49.6998 17.7991 49.0813 17.8706 47.2258C17.8706 46.953 17.9777 46.8438 18.1742 46.8438H25.9805C26.2485 46.8438 26.3556 46.9166 26.4271 47.2258L38.2526 88.0648C38.3241 88.3741 38.2526 88.556 37.9489 88.556H31.7861C31.4824 88.556 31.3038 88.4832 31.2323 88.2104L28.1777 76.8227H16.2629Z" fill="#FF7F18"/>
<rect x="-566" y="-1541" width="1445" height="4759" fill="white"/>
<path d="M-10.9966 30.4531H70.7639V111.458H-10.9966V30.4531Z" fill="url(#paint1_radial_0_1)"/>
<path d="M-10.9966 30.4537H70.7639V111.459H-10.9966V30.4537ZM-14.7122 115.242H74.4973V26.6699H-14.7122V115.242ZM43.7188 58.2496C43.7188 57.9404 43.826 57.7949 44.1654 57.7949H50.0067C50.3104 57.7949 50.4533 57.904 50.4533 58.2496V88.1194C50.4533 88.4286 50.3818 88.5742 50.0067 88.5742H44.2368C43.8617 88.5742 43.7545 88.3923 43.7545 88.083V58.2496H43.7188ZM43.3079 49.6453C43.3079 47.2258 44.9871 45.7888 47.095 45.7888C49.3636 45.7888 50.882 47.335 50.882 49.6453C50.882 52.1374 49.2922 53.5018 47.0235 53.5018C44.8799 53.52 43.3079 52.1556 43.3079 49.6453ZM26.5879 70.6923C25.5518 66.4902 23.0866 57.3401 22.1578 52.9015H22.0863C21.3003 57.3219 19.3353 64.8166 17.7812 70.6923H26.5879ZM16.2629 76.8227L13.3333 88.174C13.2618 88.4832 13.1546 88.556 12.7795 88.556H7.31333C6.9382 88.556 6.86674 88.4468 6.9382 87.9921L17.4954 50.3729C17.6741 49.6998 17.7991 49.0813 17.8706 47.2258C17.8706 46.953 17.9777 46.8438 18.1742 46.8438H25.9805C26.2485 46.8438 26.3556 46.9166 26.4271 47.2258L38.2526 88.0648C38.3241 88.3741 38.2526 88.556 37.9489 88.556H31.7861C31.4824 88.556 31.3038 88.4832 31.2323 88.2104L28.1777 76.8227H16.2629Z" fill="#FF7F18"/>
<rect x="-551" y="-1567" width="1445" height="4759" fill="white"/>
<path d="M4.00342 4.45312H85.7639V85.458H4.00342V4.45312Z" fill="url(#paint2_radial_0_1)"/>
<path d="M4.00341 4.45367H85.7639V85.4586H4.00341V4.45367ZM0.287842 89.2423H89.4973V0.669922H0.287842V89.2423ZM58.7188 32.2496C58.7188 31.9404 58.826 31.7949 59.1654 31.7949H65.0067C65.3104 31.7949 65.4533 31.904 65.4533 32.2496V62.1194C65.4533 62.4286 65.3818 62.5742 65.0067 62.5742H59.2368C58.8617 62.5742 58.7545 62.3923 58.7545 62.083V32.2496H58.7188ZM58.3079 23.6453C58.3079 21.2258 59.9871 19.7888 62.095 19.7888C64.3636 19.7888 65.882 21.335 65.882 23.6453C65.882 26.1374 64.2922 27.5018 62.0235 27.5018C59.8799 27.52 58.3079 26.1556 58.3079 23.6453ZM41.5879 44.6923C40.5518 40.4902 38.0866 31.3401 37.1578 26.9015H37.0863C36.3003 31.3219 34.3353 38.8166 32.7812 44.6923H41.5879ZM31.2629 50.8227L28.3333 62.174C28.2618 62.4832 28.1546 62.556 27.7795 62.556H22.3133C21.9382 62.556 21.8667 62.4468 21.9382 61.9921L32.4954 24.3729C32.6741 23.6998 32.7991 23.0813 32.8706 21.2258C32.8706 20.953 32.9777 20.8438 33.1742 20.8438H40.9805C41.2485 20.8438 41.3556 20.9166 41.4271 21.2258L53.2526 62.0648C53.3241 62.3741 53.2526 62.556 52.9489 62.556H46.7861C46.4824 62.556 46.3038 62.4832 46.2323 62.2104L43.1777 50.8227H31.2629Z" fill="#FF7F18"/>
<defs>
<radialGradient id="paint0_radial_0_1" cx="0" cy="0" r="1" gradientUnits="userSpaceOnUse" gradientTransform="translate(15.958 48.6304) scale(62.1406 61.2673)">
<stop stop-color="#423325" stop-opacity="0.98"/>
<stop offset="1" stop-color="#1C0A00"/>
</radialGradient>
<radialGradient id="paint1_radial_0_1" cx="0" cy="0" r="1" gradientUnits="userSpaceOnUse" gradientTransform="translate(15.958 48.6304) scale(62.1406 61.2673)">
<stop stop-color="#423325" stop-opacity="0.98"/>
<stop offset="1" stop-color="#1C0A00"/>
</radialGradient>
<radialGradient id="paint2_radial_0_1" cx="0" cy="0" r="1" gradientUnits="userSpaceOnUse" gradientTransform="translate(30.958 22.6304) scale(62.1406 61.2673)">
<stop stop-color="#423325" stop-opacity="0.98"/>
<stop offset="1" stop-color="#1C0A00"/>
</radialGradient>
</defs>
</svg>
