<svg width="90" height="89" viewBox="0 0 90 89" fill="none" xmlns="http://www.w3.org/2000/svg">
<rect width="90" height="89" fill="#E5E5E5"/>
<rect x="-305" y="-1567" width="1445" height="4759" fill="white"/>
<rect x="-309" y="-1541" width="1445" height="4759" fill="white"/>
<path d="M-11.0659 29.4258H70.5995V110.28H-11.0659V29.4258Z" fill="url(#paint0_radial_0_1)"/>
<path d="M-11.0659 29.4258H70.5994V110.28H-11.0659V29.4258ZM-14.7788 114.06H74.2944V25.6465H-14.7788V114.06ZM45.2876 61.9311C42.3602 61.9311 41.3605 63.4392 41.3605 64.6929C41.3605 66.0556 42.021 67.0004 45.9659 69.0717C51.7852 71.9425 53.6059 74.7043 53.6059 78.7379C53.6059 84.7884 49.0719 88.0408 42.9492 88.0408C39.7183 88.0408 36.9337 87.3685 35.345 86.4237C35.0772 86.3146 35.0415 86.1148 35.0415 85.8241V80.246C35.0415 79.8645 35.22 79.7554 35.4878 79.9371C37.8262 81.4815 40.5037 82.172 42.9492 82.172C45.8767 82.172 47.1084 80.9183 47.1084 79.2285C47.1084 77.8658 46.2515 76.6666 42.503 74.6861C37.2371 72.1242 35.0415 69.526 35.0415 65.1653C35.0415 60.2958 38.7901 56.244 45.2876 56.244C48.4828 56.244 50.7141 56.7346 51.928 57.2979C52.2314 57.4796 52.3028 57.7884 52.3028 58.061V63.2393C52.3028 63.5482 52.1243 63.7299 51.7495 63.6209C50.1072 62.567 47.6974 61.9311 45.2876 61.9311ZM13.3712 66.419C14.228 66.4917 14.8885 66.4917 16.3701 66.4917C20.7077 66.4917 24.7954 64.9472 24.7954 58.9331C24.7954 54.1364 21.868 51.7198 16.9234 51.7198C15.4418 51.7198 14.0317 51.7925 13.3533 51.8288L13.3712 66.419ZM6.74872 46.3598C6.74872 46.0872 7.26638 45.9055 7.56983 45.9055C9.94393 45.7965 13.4783 45.7239 17.1376 45.7239C27.4194 45.7239 31.4358 51.4654 31.4358 58.7878C31.4358 68.3813 24.5991 72.5058 16.2094 72.5058C14.7992 72.5058 14.3173 72.4331 13.3176 72.4331V86.9324C13.3176 87.2413 13.2105 87.3867 12.8714 87.3867H7.19497C6.89152 87.3867 6.74872 87.2776 6.74872 86.9324V46.3598Z" fill="#31C5F0"/>
<rect x="-309" y="-1541" width="1445" height="4759" fill="white"/>
<path d="M-10.7739 29.7793H70.8915V110.634H-10.7739V29.7793Z" fill="url(#paint1_radial_0_1)"/>
<path d="M-10.7739 29.7793H70.8914V110.634H-10.7739V29.7793ZM-14.4868 114.413H74.5864V26H-14.4868V114.413ZM45.5796 62.2846C42.6522 62.2846 41.6525 63.7927 41.6525 65.0464C41.6525 66.4091 42.313 67.3539 46.2579 69.4253C52.0771 72.296 53.8979 75.0578 53.8979 79.0915C53.8979 85.1419 49.3639 88.3943 43.2412 88.3943C40.0103 88.3943 37.2257 87.722 35.637 86.7772C35.3692 86.6682 35.3335 86.4683 35.3335 86.1776V80.5995C35.3335 80.218 35.512 80.109 35.7798 80.2906C38.1182 81.8351 40.7957 82.5255 43.2412 82.5255C46.1687 82.5255 47.4004 81.2718 47.4004 79.582C47.4004 78.2193 46.5435 77.0201 42.795 75.0396C37.5291 72.4777 35.3335 69.8795 35.3335 65.5188C35.3335 60.6494 39.0821 56.5975 45.5796 56.5975C48.7748 56.5975 51.0061 57.0881 52.22 57.6514C52.5234 57.8331 52.5948 58.142 52.5948 58.4145V63.5928C52.5948 63.9017 52.4163 64.0834 52.0415 63.9744C50.3992 62.9205 47.9894 62.2846 45.5796 62.2846ZM13.6632 66.7725C14.52 66.8452 15.1805 66.8452 16.662 66.8452C20.9997 66.8452 25.0874 65.3008 25.0874 59.2866C25.0874 54.4899 22.16 52.0733 17.2154 52.0733C15.7338 52.0733 14.3237 52.146 13.6453 52.1823L13.6632 66.7725ZM7.04071 46.7133C7.04071 46.4408 7.55837 46.2591 7.86182 46.2591C10.2359 46.15 13.7703 46.0774 17.4296 46.0774C27.7114 46.0774 31.7277 51.8189 31.7277 59.1413C31.7277 68.7348 24.8911 72.8593 16.5014 72.8593C15.0912 72.8593 14.6093 72.7866 13.6096 72.7866V87.2859C13.6096 87.5948 13.5025 87.7402 13.1634 87.7402H7.48697C7.18351 87.7402 7.04071 87.6311 7.04071 87.2859V46.7133Z" fill="#31C5F0"/>
<rect x="-294" y="-1567" width="1445" height="4759" fill="white"/>
<path d="M4.22607 3.7793H85.8915V84.6339H4.22607V3.7793Z" fill="url(#paint2_radial_0_1)"/>
<path d="M4.22606 3.77927H85.8914V84.6338H4.22606V3.77927ZM0.513184 88.4131H89.5864V0H0.513184V88.4131ZM60.5796 36.2846C57.6522 36.2846 56.6525 37.7927 56.6525 39.0464C56.6525 40.4091 57.313 41.3539 61.2579 43.4253C67.0771 46.296 68.8979 49.0578 68.8979 53.0915C68.8979 59.1419 64.3639 62.3943 58.2412 62.3943C55.0103 62.3943 52.2257 61.722 50.637 60.7772C50.3692 60.6682 50.3335 60.4683 50.3335 60.1776V54.5995C50.3335 54.218 50.512 54.109 50.7798 54.2906C53.1182 55.8351 55.7957 56.5255 58.2412 56.5255C61.1687 56.5255 62.4004 55.2718 62.4004 53.582C62.4004 52.2193 61.5435 51.0201 57.795 49.0396C52.5291 46.4777 50.3335 43.8795 50.3335 39.5188C50.3335 34.6494 54.0821 30.5975 60.5796 30.5975C63.7748 30.5975 66.0061 31.0881 67.22 31.6514C67.5234 31.8331 67.5948 32.142 67.5948 32.4145V37.5928C67.5948 37.9017 67.4163 38.0834 67.0415 37.9744C65.3992 36.9205 62.9894 36.2846 60.5796 36.2846ZM28.6632 40.7725C29.52 40.8452 30.1805 40.8452 31.662 40.8452C35.9997 40.8452 40.0874 39.3008 40.0874 33.2866C40.0874 28.4899 37.16 26.0733 32.2154 26.0733C30.7338 26.0733 29.3237 26.146 28.6453 26.1823L28.6632 40.7725ZM22.0407 20.7133C22.0407 20.4408 22.5584 20.2591 22.8618 20.2591C25.2359 20.15 28.7703 20.0774 32.4296 20.0774C42.7114 20.0774 46.7277 25.8189 46.7277 33.1413C46.7277 42.7348 39.8911 46.8593 31.5014 46.8593C30.0912 46.8593 29.6093 46.7866 28.6096 46.7866V61.2859C28.6096 61.5948 28.5025 61.7402 28.1634 61.7402H22.487C22.1835 61.7402 22.0407 61.6311 22.0407 61.2859V20.7133Z" fill="#31C5F0"/>
<defs>
<radialGradient id="paint0_radial_0_1" cx="0" cy="0" r="1" gradientUnits="userSpaceOnUse" gradientTransform="translate(15.8385 47.5656) scale(62.0565 61.1565)">
<stop stop-color="#34364E" stop-opacity="0.98"/>
<stop offset="1" stop-color="#0C0824"/>
</radialGradient>
<radialGradient id="paint1_radial_0_1" cx="0" cy="0" r="1" gradientUnits="userSpaceOnUse" gradientTransform="translate(16.1305 47.9191) scale(62.0565 61.1565)">
<stop stop-color="#34364E" stop-opacity="0.98"/>
<stop offset="1" stop-color="#0C0824"/>
</radialGradient>
<radialGradient id="paint2_radial_0_1" cx="0" cy="0" r="1" gradientUnits="userSpaceOnUse" gradientTransform="translate(31.1305 21.9191) scale(62.0565 61.1565)">
<stop stop-color="#34364E" stop-opacity="0.98"/>
<stop offset="1" stop-color="#0C0824"/>
</radialGradient>
</defs>
</svg>
