<svg width="16" height="63" viewBox="0 0 16 63" fill="none" xmlns="http://www.w3.org/2000/svg">
<path d="M12 56.816L8.112 59.072V60.752H12V62.96H0.799999L0.799999 58.48C0.799999 57.4453 1.16267 56.5653 1.888 55.84C2.61333 55.1147 3.488 54.752 4.512 54.752C5.20533 54.752 5.85067 54.9493 6.448 55.344C7.03467 55.7387 7.47733 56.2613 7.776 56.912L12 54.432V56.816ZM2.864 60.752H6.176V58.48C6.176 58.064 6.016 57.7067 5.696 57.408C5.36533 57.1093 4.97067 56.96 4.512 56.96C4.05333 56.96 3.664 57.1093 3.344 57.408C3.024 57.7067 2.864 58.064 2.864 58.48L2.864 60.752ZM12.224 49.034C12.224 50.282 11.872 51.306 11.168 52.106C10.464 52.906 9.52 53.306 8.336 53.306H0.799999L0.799999 51.114H8.16C8.74667 51.114 9.21067 50.9487 9.552 50.618C9.89333 50.2767 10.064 49.7487 10.064 49.034C10.064 48.3193 9.89333 47.7967 9.552 47.466C9.21067 47.1247 8.74667 46.954 8.16 46.954H0.799999L0.799999 44.746H8.336C9.52 44.746 10.464 45.146 11.168 45.946C11.872 46.746 12.224 47.7753 12.224 49.034Z" fill="#828282"/>
<path d="M15.2 38.7569H0.48L0.48 36.6929H15.2V38.7569ZM9.888 28.4082V23.6882H12V30.6162H0.799999L0.799999 23.7682H2.912L2.912 28.4082H5.296L5.296 24.1682H7.376L7.376 28.4082H9.888ZM0.799999 15.6519L0.799999 13.4439H12V15.1239L5.152 19.9239H12L12 22.1319H0.799999L0.799999 20.4519L7.632 15.6519H0.799999ZM5.984 0.374249H6.848C8.448 0.374249 9.744 0.88625 10.736 1.91025C11.728 2.93425 12.224 4.25692 12.224 5.87825C12.224 7.60625 11.664 9.04092 10.544 10.1822C9.41333 11.3129 8.03733 11.8783 6.416 11.8783C4.784 11.8783 3.40267 11.3182 2.272 10.1982C1.14133 9.06758 0.575999 7.67025 0.575999 6.00625C0.575999 4.96092 0.815999 4.00625 1.296 3.14225C1.76533 2.27825 2.39467 1.60625 3.184 1.12625L4.272 3.01425C3.81333 3.28092 3.44 3.68625 3.152 4.23025C2.864 4.76358 2.72 5.36092 2.72 6.02225C2.72 7.08892 3.072 7.96892 3.776 8.66225C4.46933 9.34492 5.34933 9.68625 6.416 9.68625C7.472 9.68625 8.34667 9.33958 9.04 8.64625C9.72267 7.94225 10.064 7.01425 10.064 5.86225C10.064 5.00892 9.87733 4.30492 9.504 3.75025C9.12 3.18492 8.59733 2.80092 7.936 2.59825V5.99025H5.984V0.374249Z" fill="black"/>
</svg>
